<svg xmlns="http://www.w3.org/2000/svg" xmlns:xlink="http://www.w3.org/1999/xlink">

<symbol id="github" fill-rule="evenodd" clip-rule="evenodd" stroke-linejoin="round" stroke-miterlimit="1.414"><path d="M8 0C3.58 0 0 3.582 0 8c0 3.535 2.292 6.533 5.47 7.59.4.075.547-.172.547-.385 0-.19-.007-.693-.01-1.36-2.226.483-2.695-1.073-2.695-1.073-.364-.924-.89-1.17-.89-1.17-.725-.496.056-.486.056-.486.803.056 1.225.824 1.225.824.714 1.223 1.873.87 2.33.665.072-.517.278-.87.507-1.07-1.777-.2-3.644-.888-3.644-3.953 0-.873.31-1.587.823-2.147-.09-.202-.36-1.015.07-2.117 0 0 .67-.215 2.2.82.64-.178 1.32-.266 2-.27.68.004 1.36.092 2 .27 1.52-1.035 2.19-.82 2.19-.82.43 1.102.16 1.915.08 2.117.51.56.82 1.274.82 2.147 0 3.073-1.87 3.75-3.65 3.947.28.24.54.73.54 1.48 0 1.07-.01 1.93-.01 2.19 0 .21.14.46.55.38C13.71 14.53 16 11.53 16 8c0-4.418-3.582-8-8-8"/></symbol>

<symbol id="linkedin" fill-rule="evenodd" clip-rule="evenodd" stroke-linejoin="round" stroke-miterlimit="1.414"><path d="M13.632 13.635h-2.37V9.922c0-.886-.018-2.025-1.234-2.025-1.235 0-1.424.964-1.424 1.96v3.778h-2.37V6H8.51v1.04h.03c.318-.6 1.092-1.233 2.247-1.233 2.4 0 2.845 1.58 2.845 3.637v4.188zM3.558 4.955c-.762 0-1.376-.617-1.376-1.377 0-.758.614-1.375 1.376-1.375.76 0 1.376.617 1.376 1.375 0 .76-.617 1.377-1.376 1.377zm1.188 8.68H2.37V6h2.376v7.635zM14.816 0H1.18C.528 0 0 .516 0 1.153v13.694C0 15.484.528 16 1.18 16h13.635c.652 0 1.185-.516 1.185-1.153V1.153C16 .516 15.467 0 14.815 0z" fill-rule="nonzero"/></symbol>

<symbol id="stackoverflow" class="svg-icon" xmlns="http://www.w3.org/2000/svg" fill-rule="evenodd" clip-rule="evenodd" stroke-linejoin="round" stroke-miterlimit="1.414"><path d="M12.658 14.577v-4.27h1.423V16H1.23v-5.693h1.42v4.27h10.006zm-8.583-1.423h7.16V11.73h-7.16v1.424zm.173-3.235l6.987 1.46.3-1.38L4.55 8.54l-.302 1.38zm.906-3.37l6.47 3.02.602-1.3-6.47-3.02-.602 1.29zm1.81-3.19l5.478 4.57.906-1.08L7.87 2.28l-.9 1.078zM10.502 0L9.338.863l4.27 5.735 1.164-.862L10.5 0z"/></symbol>

<symbol id="npm" fill-rule="evenodd" clip-rule="evenodd" stroke-linejoin="round" stroke-miterlimit="1.414"><path transform="scale(0.035)" d="M71.609 112.569v286.649h143.432v-215.040h71.608v215.040h71.608v-286.649h-286.649zM430.080 40.96v430.080h-430.080v-430.080h430.080z"></path></symbol>

<symbol id="mozilla" fill-rule="evenodd" clip-rule="evenodd" stroke-linejoin="round" stroke-miterlimit="1.414">
<path transform="scale(0.05)" d="M301.98,103.88c-1.108-0.17-2.194,0.421-2.656,1.442l-3.413,7.555c-1.296-9.931-3.7-25.915-6.875-36.396
  c-4.839-16.138-15.087-26.571-15.521-27.008c-0.785-0.789-1.995-0.964-2.973-0.43c-0.976,0.534-1.482,1.649-1.24,2.735
  l2.652,11.949c-6.381-6.666-16.632-16.234-26.776-20.898c-2.439-1.189-4.918-2.279-7.089-3.219
  c-22.038-19.576-50.3-30.352-79.627-30.352c-41.3,0-78.94,20.689-101.226,55.487c-2.097-1.694-5.037-4.657-6.722-8.928
  c-3.064-7.512-4.616-15.951-4.632-16.035c-0.165-0.906-0.813-1.648-1.689-1.932c-0.874-0.284-1.836-0.064-2.501,0.573
  C23.326,56.034,25.149,83.49,25.834,89.713c-2.276,2.431-8.709,9.639-15.208,20.038c-8.07,12.921-10.513,35.509-10.612,36.464
  c-0.111,1.066,0.468,2.084,1.441,2.532c0.977,0.448,2.126,0.225,2.86-0.553l5.375-5.678c-0.586,2.173-1.176,4.65-1.721,7.424
  c-2.421,11.975-1.713,30.55-1.682,31.335c0.046,1.15,0.871,2.121,2,2.35c1.128,0.232,2.267-0.341,2.759-1.382l3.163-6.697
  c2.332,16.302,11.285,50.988,45.614,82.941c25.426,23.684,60.79,37.269,97.025,37.271c0.004,0,0.005,0,0.009,0
  c35.168,0,68.374-12.578,96.022-36.372c32.692-28.164,44.871-68.384,49.33-97.166c4.814-31.073,1.996-55.158,1.873-56.168
  C303.949,104.938,303.09,104.05,301.98,103.88z M246.16,104.785c0.034,0.044,3.426,4.486,4.166,15.868
  c0.51,8.518-1.238,22.14-2.341,29.593l-6.661-7.729c-0.719-0.834-1.896-1.102-2.904-0.655c-1.007,0.445-1.604,1.496-1.471,2.588
  c0.023,0.192,2.293,19.437-1.526,36.165c-1.808,7.861-4.637,13.512-7.064,17.241l0.931-12.6c0.089-1.209-0.701-2.307-1.876-2.606
  c-1.176-0.301-2.396,0.286-2.895,1.391c-0.112,0.249-11.658,25.037-43.279,34.852c-4.416,1.36-9.067,2.05-13.825,2.05
  c-16.854,0.001-32.168-8.598-40.849-14.64c0.747,0.038,1.49,0.057,2.229,0.057c12.435,0,21.998-5.357,29.684-9.662
  c2.019-1.131,3.926-2.199,5.761-3.106c11.045-5.554,16.18-6.02,20.125-6.02c2.084,0,3.691-1.217,4.195-3.175
  c1.235-4.806-4.543-13.372-11.678-17.3c-3.539-1.924-7.323-2.82-11.906-2.82c-7.292,0-16.333,2.3-29.284,5.806
  c-2.377,0.634-4.724,0.956-6.976,0.956c-7.936,0.001-13.184-3.838-16.189-7.059c-4.044-4.334-6.347-10.061-6.008-14.945
  c0.154-2.227,1.026-4.504,6.325-4.504c4.701,0,9.926,1.938,9.977,1.956c0.285,0.108,0.584,0.161,0.881,0.161
  c0.005,0,0.012,0,0.019,0c1.381,0,2.5-1.119,2.5-2.5c0-0.135-0.011-0.268-0.031-0.397l-0.699-21.899
  c2.525-1.61,8.567-5.527,14.375-9.749c14.051-10.214,15.933-14.12,14.429-17.087c-1.992-4.04-7.235-4.696-13.306-5.456
  c-3.474-0.435-7.411-0.928-10.967-2.105c-7.408-2.462-12.289-8.858-13.4-10.43c-0.23-1.316-0.78-5.75,1.395-9.535
  c2.354-4.137,10.495-10.542,13.434-12.662c0.84-0.605,1.22-1.666,0.955-2.667c-0.265-1-1.119-1.735-2.148-1.846
  c-0.252-0.028-7.721-0.774-19.922,3.266c-9.934,3.328-17.639,8.722-20.294,10.723c-1.142-0.224-3.097-0.533-6.336-0.867
  c19.025-21.484,46.01-33.714,74.76-33.714c21.101,0,41.038,6.417,58.012,18.618l-16.808,2.811
  c-1.142,0.191-2.003,1.141-2.082,2.295c-0.079,1.155,0.646,2.213,1.75,2.558c0.224,0.07,22.608,7.146,39.31,20.021
  c3.717,2.909,7.115,6.676,10.104,11.199c2.787,5.974,4.968,12.134,6.513,18.387l-5.62-4.367c-0.998-0.775-2.406-0.672-3.296,0.223
  C245.454,102.361,245.38,103.792,246.16,104.785z"/>
</symbol>

</svg>
